<?xml version="1.0" encoding="utf-8"?>
<!-- Generator: Adobe Illustrator 26.5.0, SVG Export Plug-In . SVG Version: 6.00 Build 0)  -->
<svg version="1.1" id="Layer_1" xmlns="http://www.w3.org/2000/svg" xmlns:xlink="http://www.w3.org/1999/xlink" x="0px" y="0px"
	 viewBox="0 0 30.7 30.7" style="enable-background:new 0 0 30.7 30.7;" xml:space="preserve">
<style type="text/css">
	.st0{fill:#0D52BB;}
	.st1{fill:#FFFFFF;}
</style>
<g>
	<path class="st0" d="M0.7,22.3V8.4c0-4.2,3.4-7.6,7.6-7.6h13.9c4.2,0,7.6,3.4,7.6,7.6v13.9c0,4.2-3.4,7.6-7.6,7.6h-4.7L15,29.3
		L13.1,30H8.4C4.2,30,0.7,26.5,0.7,22.3z"/>
	<g>
		<path class="st1" d="M21,20.1l0.6-4.2h-4.1v-2.7c0-1.2,0.6-2.3,2.4-2.3h1.8V7.2c0,0-1.7-0.3-3.3-0.3c-3.3,0-5.5,2-5.5,5.7v3.2H9.4
			V20h3.7v10h4.6v-9.9H21z"/>
	</g>
</g>
</svg>
