<?xml version="1.0" encoding="utf-8"?>
<!-- Generator: Adobe Illustrator 26.5.0, SVG Export Plug-In . SVG Version: 6.00 Build 0)  -->
<svg version="1.1" id="Layer_1" xmlns="http://www.w3.org/2000/svg" xmlns:xlink="http://www.w3.org/1999/xlink" x="0px" y="0px"
	 viewBox="0 0 30.7 30.7" style="enable-background:new 0 0 30.7 30.7;" xml:space="preserve">
<style type="text/css">
	.st0{fill:#0D52BB;}
	.st1{fill:#FFFFFF;}
</style>
<path class="st0" d="M0.7,22.3V8.4c0-4.2,3.4-7.6,7.6-7.6h13.9c4.2,0,7.6,3.4,7.6,7.6v13.9c0,4.2-3.4,7.6-7.6,7.6L8.4,30
	C4.2,30,0.7,26.5,0.7,22.3z"/>
<g>
	<path class="st1" d="M15,16.8c0.2,0.2,0.5,0.2,0.7,0L23,10c0.2-0.3,0.1-0.7-0.4-0.7H8.1c-0.4,0-0.7,0.4-0.4,0.7L15,16.8z"/>
	<path class="st1" d="M23.1,12.7c0-0.3-0.4-0.5-0.6-0.3l-5.7,5.3c-0.4,0.4-0.9,0.6-1.4,0.6s-1-0.2-1.4-0.5l-5.7-5.3
		c-0.3-0.2-0.6-0.1-0.6,0.3c0,1.5,0,5.4,0,7.3c0,0.7,0.6,1.3,1.3,1.3h12.9c0.7,0,1.3-0.6,1.3-1.3C23.1,18.1,23.1,14.2,23.1,12.7z"/>
</g>
</svg>
