<?xml version="1.0" encoding="utf-8"?>
<!-- Generator: Adobe Illustrator 26.5.0, SVG Export Plug-In . SVG Version: 6.00 Build 0)  -->
<svg version="1.1" id="Layer_1" xmlns="http://www.w3.org/2000/svg" xmlns:xlink="http://www.w3.org/1999/xlink" x="0px" y="0px"
	 viewBox="0 0 30.7 30.7" style="enable-background:new 0 0 30.7 30.7;" xml:space="preserve">
<style type="text/css">
	.st0{fill:#0D52BB;}
	.st1{fill:#FFFFFF;}
</style>
<g>
	<path class="st0" d="M0.7,22.3V8.4c0-4.2,3.4-7.6,7.6-7.6h13.9c4.2,0,7.6,3.4,7.6,7.6v13.9c0,4.2-3.4,7.6-7.6,7.6L8.4,30
		C4.2,30,0.7,26.5,0.7,22.3z"/>
	<g>
		<path class="st1" d="M19.9,9.8c-0.6,0-1,0.4-1,1s0.5,1,1,1c0.6,0,1-0.5,1-1S20.4,9.8,19.9,9.8z"/>
		<path class="st1" d="M15.4,11.1c-2.3,0-4.2,1.9-4.2,4.2s1.9,4.2,4.2,4.2s4.2-1.9,4.2-4.2C19.6,13,17.7,11.1,15.4,11.1z M15.4,18.1
			c-1.5,0-2.7-1.2-2.7-2.7s1.2-2.7,2.7-2.7s2.7,1.2,2.7,2.7S16.9,18.1,15.4,18.1z"/>
		<path class="st1" d="M18.8,23.9H12c-2.8,0-5.1-2.3-5.1-5.1V12c0-2.8,2.3-5.1,5.1-5.1h6.8c2.8,0,5.1,2.3,5.1,5.1v6.8
			C23.9,21.6,21.6,23.9,18.8,23.9z M11.9,8.4c-2,0-3.5,1.6-3.5,3.5v6.8c0,2,1.6,3.5,3.5,3.5h6.8c2,0,3.5-1.6,3.5-3.5v-6.8
			c0-2-1.6-3.5-3.5-3.5C18.7,8.4,11.9,8.4,11.9,8.4z"/>
	</g>
</g>
</svg>
