<?xml version="1.0" encoding="utf-8"?>
<!-- Generator: Adobe Illustrator 26.5.0, SVG Export Plug-In . SVG Version: 6.00 Build 0)  -->
<svg version="1.1" id="Layer_1" xmlns="http://www.w3.org/2000/svg" xmlns:xlink="http://www.w3.org/1999/xlink" x="0px" y="0px"
	 viewBox="0 0 30.7 30.7" style="enable-background:new 0 0 30.7 30.7;" xml:space="preserve">
<style type="text/css">
	.st0{fill:#19A1FF;}
	.st1{fill:#FFFFFF;}
</style>
<g>
	<path class="st0" d="M0.7,22.3V8.4c0-4.2,3.4-7.6,7.6-7.6h13.9c4.2,0,7.6,3.4,7.6,7.6v13.9c0,4.2-3.4,7.6-7.6,7.6L8.4,30
		C4.2,30,0.7,26.5,0.7,22.3z"/>
	<path class="st1" d="M22.9,13.7c-0.1,0-0.3,0-0.4,0c-1.6,0-3.2-0.8-4.1-2.2V19c0,3.1-2.5,5.6-5.6,5.6S7.2,22.1,7.2,19
		s2.5-5.6,5.6-5.6l0,0c0.1,0,0.2,0,0.3,0v2.7c-0.1,0-0.2,0-0.3,0c-1.6,0-2.8,1.3-2.8,2.8s1.3,2.8,2.8,2.8c1.6,0,3-1.2,3-2.8V6.1h2.6
		c0.2,2.4,2.1,4.2,4.5,4.4V13.7"/>
</g>
</svg>
